<?xml version="1.0" encoding="UTF-8"?>
<svg id="Calque_1" xmlns="http://www.w3.org/2000/svg" version="1.1" viewBox="0 0 64 40">
  <!-- Generator: Adobe Illustrator 29.7.1, SVG Export Plug-In . SVG Version: 2.1.1 Build 8)  -->
  <defs>
    <style>
      .st0 {
        fill: #fff;
      }
    </style>
  </defs>
  <path class="st0" d="M54.77,24.4c-.18,1.01-.47,1.92-.89,2.73s-.94,1.5-1.56,2.08c-.62.57-1.32,1.01-2.12,1.32s-1.67.46-2.61.46c-1.77,0-3.25-.49-4.45-1.48s-2.11-2.35-2.71-4.08c-.61-1.73-.91-3.71-.91-5.94s.3-4.27.91-6.01c.61-1.73,1.51-3.08,2.71-4.05s2.69-1.45,4.45-1.45c.95,0,1.81.15,2.6.44.78.29,1.47.71,2.07,1.27.6.55,1.1,1.21,1.52,1.99.42.78.73,1.66.93,2.65l9.23-1.75c-.35-1.93-.99-3.68-1.92-5.23-.93-1.55-2.11-2.87-3.54-3.95s-3.08-1.91-4.93-2.5c-1.85-.58-3.87-.88-6.06-.88-3.73,0-6.94.82-9.65,2.45-2.44,1.47-4.38,3.48-5.81,6-.76-1.2-1.62-2.28-2.61-3.19-1.66-1.51-3.55-2.61-5.68-3.3s-4.41-.98-6.83-.87c-3.59.17-6.69,1.13-9.28,2.9-2.59,1.76-4.55,4.14-5.88,7.13C.43,14.11-.14,17.54.03,21.43c.18,3.98,1.06,7.38,2.66,10.21,1.59,2.83,3.79,4.97,6.6,6.42,2.8,1.45,6.09,2.08,9.86,1.91,2.89-.13,5.42-.68,7.6-1.63,2.18-.96,3.97-2.25,5.38-3.88.43-.5.88-1.16,1.3-1.88,1.22,1.57,2.7,2.88,4.43,3.92,2.7,1.63,5.92,2.45,9.65,2.45,2.21,0,4.24-.29,6.11-.88,1.86-.58,3.51-1.44,4.95-2.56,1.43-1.12,2.61-2.47,3.54-4.03s1.57-3.35,1.92-5.35l-9.23-1.72h-.03ZM10.44,13.54c.56-1.41,1.42-2.55,2.58-3.41s2.61-1.34,4.33-1.42c1.7-.08,3.14.25,4.33,1,1.19.74,2.11,1.83,2.76,3.25.45,1,.76,2.13.94,3.39l-15.66.72c.06-1.28.29-2.46.71-3.53h.01ZM25.91,27.57c-.31.98-.79,1.82-1.43,2.51s-1.43,1.23-2.36,1.61c-.93.38-1.98.6-3.15.65-1.72.08-3.24-.22-4.56-.9-1.32-.68-2.38-1.75-3.16-3.2-.71-1.31-1.12-2.93-1.27-4.84l19.57-.9c.18,1.71.53,3.31,1.04,4.8l-4.69.26h.01Z"/>
</svg>