<?xml version="1.0" encoding="UTF-8"?>
<svg id="Calque_1" xmlns="http://www.w3.org/2000/svg" version="1.1" viewBox="0 0 198.12 47.07">
  <!-- Generator: Adobe Illustrator 29.7.1, SVG Export Plug-In . SVG Version: 2.1.1 Build 8)  -->
  <defs>
    <style>
      .st0 {
        isolation: isolate;
      }

      .st1 {
        fill: #fff;
      }
    </style>
  </defs>
  <g class="st0">
    <g>
      <path class="st1" d="M52.41,19.6c.37-.27.8-.41,1.3-.43.27,0,.51.01.74.07.23.06.43.15.61.27s.34.27.47.45c.13.17.23.38.31.61l2.01-.08c-.09-.48-.25-.91-.5-1.3-.25-.38-.56-.71-.94-.99-.38-.27-.8-.48-1.28-.62-.47-.14-.99-.2-1.53-.18-.85.03-1.61.26-2.27.68-.67.42-1.18,1.01-1.55,1.77-.37.76-.53,1.66-.49,2.71.04,1.02.27,1.89.68,2.62.41.73.96,1.28,1.66,1.65.69.38,1.49.55,2.4.51h.03c.8-.03,1.51-.22,2.13-.57.61-.35,1.09-.84,1.42-1.46s.48-1.35.45-2.2l-.05-1.21-4.02.16.06,1.5,2.1-.08c0,.4-.06.75-.23,1.05-.17.32-.41.57-.74.75s-.72.28-1.19.3c-.52.02-.97-.08-1.36-.32s-.7-.59-.93-1.06c-.22-.47-.35-1.05-.38-1.73-.03-.68.06-1.27.25-1.75.19-.48.47-.86.84-1.12Z"/>
      <path class="st1" d="M61.71,21.43c.23-.13.5-.21.79-.22.15-.01.3-.01.47,0,.17.01.29.03.38.06l-.07-1.74c-.09-.02-.19-.04-.31-.04h-.33c-.41.02-.77.15-1.07.39s-.51.59-.63,1.05h-.08l-.05-1.27-1.88.08.29,7.26h0s1.95-.09,1.95-.09l-.17-4.13c-.01-.3.05-.57.17-.8.12-.23.3-.42.53-.55Z"/>
      <path class="st1" d="M67.73,22.11c-.12.09-.3.15-.56.2s-.59.1-1.01.16c-.36.05-.7.12-1.02.22-.32.1-.61.24-.86.41-.25.18-.45.4-.58.68-.13.28-.2.62-.18,1.02.02.48.14.88.36,1.19.22.31.52.54.89.69.38.14.79.21,1.25.19h0c.36-.01.67-.07.94-.18.27-.11.5-.26.69-.43s.33-.38.44-.61h.06l.04,1.01,1.84-.07-.19-4.89c-.02-.44-.12-.81-.3-1.12s-.42-.56-.72-.74c-.3-.18-.64-.31-1.01-.39s-.75-.11-1.14-.09c-.54.02-1.03.12-1.45.29-.42.18-.77.41-1.05.72-.28.3-.47.67-.58,1.1l1.8.22c.05-.16.13-.3.24-.43.11-.13.26-.24.44-.32.18-.08.4-.14.65-.14.24,0,.44.02.62.09s.31.17.4.31.15.31.15.52v.03c0,.16-.05.28-.17.36ZM67.98,23.26l.03.79c.01.25-.05.49-.17.7-.12.22-.29.39-.52.52s-.49.2-.8.21h0c-.21,0-.4-.01-.57-.07-.17-.05-.3-.15-.4-.27-.1-.12-.16-.27-.16-.46-.01-.2.04-.36.13-.5.09-.14.23-.25.41-.33.18-.08.38-.15.62-.19.11-.02.23-.04.37-.07.14-.03.28-.06.42-.09.15-.04.27-.07.39-.11.11-.04.2-.08.25-.13Z"/>
      <path class="st1" d="M76.53,19.36c-.46-.26-.95-.38-1.49-.36-.41.02-.75.1-1.02.25-.27.15-.48.33-.64.54-.16.21-.28.41-.36.61h-.09l-.05-1.22-1.91.08.4,9.97h-.02s1.95-.07,1.95-.07l-.15-3.88h.06c.1.19.24.38.42.57.18.19.4.35.68.47.28.12.62.18,1.01.16.56-.02,1.06-.18,1.49-.49.44-.31.77-.74,1.01-1.31s.34-1.26.31-2.06c-.03-.83-.19-1.52-.48-2.06-.29-.54-.66-.94-1.12-1.2ZM76.01,23.84c-.11.33-.28.59-.5.79-.22.19-.5.3-.84.31v-.02c-.32.01-.61-.07-.85-.24-.24-.17-.43-.42-.57-.74s-.21-.7-.23-1.14c-.01-.44.03-.82.14-1.15.11-.32.27-.58.5-.77.23-.19.51-.29.84-.3.35-.01.63.07.87.25.23.18.42.43.55.75s.2.69.22,1.12c.02.43-.02.81-.13,1.14Z"/>
      <path class="st1" d="M80.96,21.94c0-.32.04-.6.15-.83.11-.23.27-.41.48-.54.21-.13.45-.2.72-.21.41-.02.74.09.98.34.24.24.37.59.39,1.04l.17,4.28,1.95-.08-.18-4.61c-.02-.57-.15-1.05-.37-1.45-.22-.41-.53-.71-.91-.91-.39-.21-.83-.3-1.33-.28-.61.03-1.11.21-1.48.56-.29.27-.5.64-.66,1.07l-.16-3.86-1.91.08.38,9.67,1.95-.08-.17-4.19Z"/>
      <polygon class="st1" points="86.72 18.63 87.01 25.89 88.96 25.81 88.67 18.55 86.72 18.63"/>
      <path class="st1" d="M86.55,16.69c.01.28.13.51.34.7.21.18.47.27.76.26h-.01c.3-.02.55-.13.75-.33.21-.2.3-.45.29-.72-.01-.27-.12-.5-.34-.69-.22-.19-.48-.27-.77-.26s-.54.12-.74.32c-.2.2-.29.44-.28.72Z"/>
      <path class="st1" d="M94.57,23.43c-.08.16-.17.29-.29.41s-.26.21-.41.27c-.15.07-.32.11-.51.11-.34,0-.64-.07-.88-.25-.24-.18-.43-.44-.56-.76s-.2-.7-.22-1.13.02-.82.13-1.16c.1-.34.27-.61.5-.8.23-.19.51-.3.86-.31.18,0,.36.02.51.07.16.05.3.13.42.23.12.1.22.22.31.37.09.14.15.31.2.5l1.8-.41c-.09-.37-.23-.7-.42-.99-.2-.29-.44-.53-.73-.73-.29-.2-.62-.34-.99-.44-.36-.1-.76-.14-1.19-.12-.73.02-1.35.21-1.87.54-.51.34-.9.79-1.17,1.36-.26.57-.38,1.24-.35,1.99.03.74.2,1.39.51,1.94.31.55.74.97,1.28,1.26.54.3,1.18.43,1.91.4v-.03c.43-.02.83-.09,1.19-.22.36-.13.68-.3.95-.53.27-.23.49-.49.66-.8.16-.3.28-.65.33-1.04l-1.82-.26c-.02.19-.07.37-.15.53Z"/>
      <path class="st1" d="M106.83,23.25c.21-.35.37-.77.48-1.24.11-.48.15-1.01.13-1.61l-1.63.06c.02.49-.04.93-.19,1.34-.04.12-.1.22-.16.33l-1.69-1.8.56-.43c.26-.21.48-.43.66-.66.19-.23.33-.48.42-.75.1-.27.14-.55.13-.85-.02-.42-.13-.8-.35-1.13-.22-.34-.52-.6-.9-.79-.38-.18-.83-.27-1.34-.25-.52.03-.97.15-1.36.38-.38.23-.68.53-.88.91-.21.38-.3.8-.28,1.26.01.41.11.79.29,1.14.18.35.4.67.66.97.03.03.06.07.09.1-.32.25-.61.49-.86.74-.26.26-.47.54-.61.84s-.21.64-.19,1.03c.02.5.16.94.44,1.34.28.4.67.71,1.16.93.49.22,1.07.32,1.74.29h-.05c.43-.01.87-.09,1.32-.25.43-.14.8-.37,1.13-.65l.62.64,2.05-.08-1.53-1.62c.04-.06.09-.12.14-.19ZM102.23,17.49c.07-.13.18-.24.32-.32.15-.08.31-.13.5-.13.29-.01.51.06.68.21.17.15.26.34.26.56,0,.14-.02.28-.08.41s-.14.25-.24.37c-.1.11-.22.22-.35.31l-.52.37s-.02-.02-.03-.03c-.19-.22-.34-.43-.46-.64-.11-.21-.18-.42-.18-.63,0-.18.03-.34.1-.48ZM104.11,23.56c-.33.16-.67.26-1.03.27-.27.01-.52-.03-.73-.12-.21-.09-.38-.22-.5-.4s-.2-.39-.2-.63c-.01-.25.05-.48.18-.68.13-.19.32-.39.58-.6l.08-.06,1.95,2.01c-.11.07-.21.15-.33.21Z"/>
      <path class="st1" d="M118.65,14.96l-1.37,4.5c-.06.21-.12.49-.19.82-.07.34-.14.7-.21,1.08-.07.38-.14.74-.19,1.09-.09-.36-.19-.71-.29-1.09-.1-.38-.2-.73-.3-1.06-.09-.32-.18-.58-.25-.79l-1.75-4.38-3.04.12.38,9.67v.03s1.98-.08,1.98-.08l-.18-4.56c-.01-.22-.02-.49-.04-.81-.02-.32-.04-.66-.07-1.03-.02-.37-.05-.74-.07-1.11,0-.14-.02-.27-.02-.4.05.17.1.33.15.5.12.38.23.74.35,1.1.12.35.23.68.33.97.1.29.19.53.26.73l1.81,4.49,1.67-.07,1.42-4.62c.05-.2.12-.46.2-.76.08-.3.16-.64.25-1,.09-.36.18-.73.26-1.12.05-.2.08-.39.12-.59,0,.17,0,.33,0,.52.01.38.01.74.01,1.11s.01.7.01,1.02.02.58.02.79l.18,4.56,1.99-.08-.38-9.67-3.05.12Z"/>
      <path class="st1" d="M128.18,17.36c-.54-.29-1.18-.42-1.91-.39-.73.02-1.35.21-1.87.54-.52.34-.92.79-1.18,1.36-.26.58-.38,1.24-.35,1.99.03.74.2,1.39.51,1.94.31.55.74.97,1.28,1.26.55.3,1.18.43,1.91.4h0c.73-.04,1.35-.22,1.87-.56.51-.34.9-.79,1.17-1.36.26-.57.38-1.23.35-1.97-.03-.75-.2-1.4-.51-1.95s-.74-.97-1.28-1.26ZM127.86,21.8c-.1.34-.26.61-.49.81-.23.2-.51.31-.86.32v.02c-.35.02-.64-.07-.88-.25s-.42-.44-.55-.77c-.13-.34-.2-.71-.22-1.13-.02-.43.03-.81.13-1.15.1-.34.27-.61.49-.81.22-.2.5-.31.85-.32.35-.02.64.07.88.25s.43.43.56.76c.13.32.2.7.22,1.13.02.42-.03.8-.13,1.14Z"/>
      <polygon class="st1" points="130.96 15.15 130.96 15.15 130.96 15.14 130.96 15.15"/>
      <path class="st1" d="M134.18,22.54c-.13.02-.24.04-.31.04-.24.01-.42-.04-.52-.15-.1-.1-.17-.27-.17-.5l-.14-3.64,1.35-.05-.06-1.49-1.35.05-.07-1.73-1.95.08.07,1.73-1,.04.06,1.49,1-.04.15,3.8c.03.66.24,1.16.64,1.5.4.34.96.5,1.69.47.19-.01.4-.03.61-.06.21-.03.43-.09.64-.16l-.34-1.45c-.07.02-.17.04-.3.07Z"/>
      <polygon class="st1" points="135.15 16.72 135.44 23.97 137.39 23.89 137.1 16.64 135.15 16.72"/>
      <path class="st1" d="M136.08,15.73h0c.29-.02.54-.13.74-.33.21-.2.3-.45.29-.72-.01-.27-.12-.5-.34-.69-.22-.18-.48-.27-.77-.26-.29,0-.54.12-.74.32-.2.2-.29.44-.28.72,0,.28.13.51.34.7s.47.27.76.26Z"/>
      <path class="st1" d="M143.45,16.76c-.54-.29-1.18-.42-1.91-.39-.73.02-1.35.21-1.87.54-.52.33-.91.79-1.18,1.36-.26.57-.38,1.24-.35,1.99.03.74.2,1.39.51,1.94s.74.97,1.28,1.26c.55.3,1.18.43,1.91.4h0c.73-.04,1.35-.23,1.87-.56.51-.34.91-.79,1.17-1.36s.38-1.23.35-1.97c-.03-.75-.2-1.4-.51-1.95s-.74-.97-1.28-1.26ZM143.13,21.2c-.1.34-.26.61-.49.81s-.51.31-.86.32h-.01c-.35.03-.64-.06-.88-.24s-.42-.44-.55-.77c-.13-.34-.2-.71-.22-1.13-.02-.43.03-.81.13-1.15.1-.34.27-.61.49-.81.23-.2.52-.31.86-.32.34-.01.64.07.88.25.24.19.43.44.56.77.13.32.2.7.22,1.13.02.42-.03.8-.13,1.14Z"/>
      <path class="st1" d="M152.36,17.22c-.23-.4-.53-.71-.91-.91-.39-.2-.83-.29-1.33-.27-.61.03-1.11.21-1.48.56-.31.29-.54.69-.71,1.17l-.09-1.55-1.84.07.29,7.25,1.95-.08-.17-4.2v.02c-.01-.32.04-.6.15-.83s.27-.41.48-.54.45-.2.72-.21c.41-.02.74.1.98.34.24.24.37.59.39,1.04l.17,4.28,1.95-.08-.18-4.61c-.03-.57-.15-1.05-.37-1.45Z"/>
      <path class="st1" d="M162.42,13.78c-.72-.36-1.56-.52-2.53-.48l-2.58.1v.02c-.42.02-.85.03-.85.03l.38,9.67,1.98-.08h0s1.43-.06,1.43-.06h0c.98-.05,1.81-.27,2.5-.69.68-.42,1.2-.99,1.55-1.73.35-.74.5-1.61.46-2.62-.04-1-.26-1.85-.67-2.56-.41-.71-.97-1.24-1.68-1.6ZM162.55,19.82c-.19.47-.5.82-.91,1.06-.41.23-.93.37-1.55.39l-1.34.06-.25-6.26,1.34-.05c.62-.02,1.14.07,1.57.27.43.21.76.54.99.99.23.46.36,1.04.39,1.76.03.72-.06,1.32-.25,1.79Z"/>
      <path class="st1" d="M172.38,18.82c-.03-.62-.14-1.16-.33-1.61s-.45-.83-.77-1.12c-.32-.29-.69-.51-1.11-.64s-.86-.19-1.34-.17c-.7.03-1.31.21-1.82.55s-.9.8-1.16,1.37-.38,1.23-.35,1.98c.03.77.2,1.42.51,1.97.31.54.74.96,1.29,1.24.55.28,1.19.41,1.93.38h0c.56-.04,1.06-.14,1.49-.32s.78-.43,1.06-.74.47-.67.57-1.07l-1.78-.26c-.06.19-.15.35-.28.48-.13.13-.29.24-.47.31-.19.07-.39.12-.62.12-.34.01-.64-.05-.9-.18-.26-.13-.47-.34-.62-.62-.14-.25-.21-.57-.23-.93l4.95-.2-.02-.54ZM167.42,18.34c.01-.24.05-.47.13-.68.11-.28.28-.49.51-.66.23-.17.51-.26.85-.27.33-.01.62.06.85.2.24.14.42.35.54.63.08.19.14.42.17.66l-3.05.12Z"/>
      <path class="st1" d="M177.3,18.07l-1.32-.21c-.34-.05-.59-.14-.73-.26-.15-.12-.23-.27-.23-.45,0-.22.09-.41.3-.55.21-.14.48-.22.8-.23.36-.02.64.05.86.2.22.15.37.35.45.59l1.71-.37c-.1-.39-.29-.72-.56-1-.28-.28-.62-.49-1.05-.63-.43-.14-.93-.2-1.5-.18-.61.03-1.14.14-1.59.34-.44.2-.79.47-1.03.82-.24.35-.35.75-.33,1.22.02.55.21.98.57,1.31.36.33.89.55,1.6.67l1.26.21c.31.05.55.13.71.25.16.12.25.27.25.46,0,.22-.09.4-.3.55-.21.15-.5.24-.87.25-.39.02-.72-.05-.96-.21-.24-.16-.42-.41-.53-.74l-1.8.38c.1.45.3.83.6,1.13.3.3.67.53,1.13.68.46.15.98.21,1.56.19v-.02c.64-.03,1.2-.15,1.68-.37.48-.22.85-.51,1.11-.88s.38-.8.36-1.27c-.02-.52-.21-.93-.56-1.24-.35-.31-.88-.52-1.59-.64Z"/>
      <path class="st1" d="M181.05,13.94h0c.29-.02.54-.13.74-.33.21-.2.3-.45.29-.72s-.12-.5-.34-.69c-.22-.18-.48-.27-.77-.26-.29.01-.54.12-.74.32-.2.2-.29.44-.28.72.01.28.13.51.34.7.22.18.48.27.77.26Z"/>
      <polygon class="st1" points="180.12 14.92 180.41 22.18 180.41 22.17 182.36 22.09 182.07 14.84 180.12 14.92"/>
      <path class="st1" d="M188.09,14.59l.05,1.22h-.08c-.09-.19-.23-.38-.41-.58-.18-.2-.41-.37-.69-.49-.28-.12-.62-.18-1.03-.16-.54.02-1.02.18-1.46.47-.44.29-.78.72-1.03,1.28-.24.56-.35,1.25-.32,2.07.03.8.19,1.46.48,1.97.28.52.65.89,1.11,1.13.45.24.95.35,1.5.33.39-.01.72-.08.98-.21.26-.13.47-.28.63-.47.15-.18.27-.38.35-.58h.15l.05,1.34c.02.48-.11.84-.38,1.08-.28.24-.66.37-1.16.39-.31.02-.57-.02-.79-.09-.21-.07-.39-.17-.52-.29s-.23-.25-.3-.38l-1.66.53c.12.34.33.63.62.89.29.26.66.46,1.12.59.45.14.99.19,1.59.17v-.02c.7-.03,1.3-.16,1.82-.4.51-.23.92-.57,1.2-1.02.29-.45.42-1,.39-1.65l-.29-7.2-1.92.08ZM188.09,19.33c-.11.31-.28.56-.5.73-.23.17-.51.27-.84.28-.34.01-.63-.06-.87-.22-.24-.16-.43-.4-.56-.7-.13-.3-.2-.67-.22-1.09-.02-.42.02-.79.13-1.11.11-.33.28-.59.5-.78.23-.19.51-.3.85-.31.33-.02.62.06.86.23.24.17.43.41.56.73.14.32.21.69.23,1.12.01.43-.03.81-.14,1.12Z"/>
      <path class="st1" d="M197.94,16.88c-.03-.57-.15-1.05-.37-1.45-.23-.4-.53-.71-.91-.91-.39-.21-.83-.3-1.33-.28-.61.03-1.11.21-1.48.56-.31.29-.54.69-.71,1.17l-.09-1.55-1.84.07.29,7.25,1.95-.08-.17-4.18c0-.32.04-.59.15-.82.11-.23.27-.41.48-.54.21-.13.45-.2.72-.21.41-.02.74.09.98.34.24.24.37.59.39,1.04l.17,4.28,1.95-.08-.18-4.61Z"/>
      <path class="st1" d="M62.72,32.4c-.49.93-1.09,1.72-1.81,2.37-.72.65-1.55,1.15-2.47,1.5s-1.94.52-3.04.52c-2.05,0-3.78-.57-5.18-1.7-1.4-1.13-2.45-2.68-3.16-4.66-.71-1.98-1.06-4.18-1.06-6.78s.35-4.88,1.06-6.86c.71-1.97,1.76-3.52,3.16-4.62,1.4-1.11,3.12-1.66,5.18-1.66,1.1,0,2.11.17,3.02.5.91.33,1.72.81,2.41,1.44s1.28,1.38,1.77,2.27c.49.88.85,1.89,1.08,3.02l10.75-2c-.41-2.21-1.15-4.2-2.23-5.97s-2.45-3.28-4.12-4.51-3.58-2.18-5.74-2.85c-2.16-.67-4.51-1-7.05-1-4.34,0-8.08.93-11.23,2.79-2.84,1.68-5.1,3.97-6.77,6.86-.88-1.38-1.89-2.62-3.05-3.66-1.93-1.73-4.13-2.98-6.61-3.77-2.48-.79-5.13-1.12-7.95-.99-4.18.19-7.78,1.29-10.8,3.31-3.02,2.01-5.3,4.73-6.84,8.14C.5,17.5-.17,21.43.03,25.87c.21,4.54,1.24,8.43,3.09,11.66,1.86,3.23,4.42,5.68,7.68,7.33,3.26,1.65,7.09,2.38,11.48,2.18,3.36-.15,6.31-.77,8.84-1.87,2.53-1.09,4.62-2.57,6.26-4.43.51-.58,1.03-1.32,1.52-2.15,1.42,1.79,3.14,3.29,5.16,4.48,3.15,1.86,6.89,2.79,11.23,2.79v.03c2.57,0,4.94-.33,7.11-1,2.17-.67,4.09-1.65,5.76-2.93,1.67-1.28,3.04-2.81,4.12-4.6,1.07-1.79,1.82-3.82,2.23-6.11l-10.75-1.97c-.21,1.16-.55,2.2-1.04,3.12ZM12.16,16.85c.65-1.61,1.65-2.91,3.01-3.9,1.36-.99,3.04-1.53,5.04-1.62,1.98-.09,3.66.29,5.05,1.14,1.39.85,2.46,2.09,3.22,3.71.53,1.14.89,2.43,1.09,3.86l-18.23.83c.07-1.46.34-2.81.83-4.03h-.01ZM30.16,32.87c-.36,1.12-.92,2.08-1.66,2.87-.75.79-1.67,1.41-2.75,1.84-1.09.43-2.31.68-3.67.74-2,.09-3.77-.25-5.31-1.03-1.54-.78-2.77-2-3.68-3.65-.82-1.5-1.3-3.35-1.47-5.53l22.79-1.03c.21,1.95.62,3.78,1.21,5.49l-5.46.3Z"/>
      <polygon class="st1" points="84.02 0 78.18 11.87 87.32 3.09 84.02 0"/>
      <polygon class="st1" points="93.92 5.2 88.27 10.04 94.94 7.52 93.92 5.2"/>
      <polygon class="st1" points="88.35 32.24 79.89 31.15 87.15 34.9 88.35 32.24"/>
      <polygon class="st1" points="85.98 44.02 88.88 41.98 80.71 35.61 85.98 44.02"/>
    </g>
  </g>
</svg>